<svg width="106" height="45" viewBox="0 0 106 45" fill="none" xmlns="http://www.w3.org/2000/svg">
<path d="M54.28 28V14H59.52C60.7067 14 61.7267 14.1933 62.58 14.58C63.4333 14.9533 64.0867 15.5 64.54 16.22C65.0067 16.9267 65.24 17.7867 65.24 18.8C65.24 19.7867 65.0067 20.64 64.54 21.36C64.0867 22.0667 63.4333 22.6133 62.58 23C61.7267 23.3867 60.7067 23.58 59.52 23.58H55.1L55.76 22.88V28H54.28ZM55.76 23L55.1 22.28H59.48C60.88 22.28 61.94 21.98 62.66 21.38C63.3933 20.7667 63.76 19.9067 63.76 18.8C63.76 17.68 63.3933 16.8133 62.66 16.2C61.94 15.5867 60.88 15.28 59.48 15.28H55.1L55.76 14.58V23ZM68.3355 28V13.16H69.7555V28H68.3355ZM80.2866 28V25.68L80.2266 25.3V21.42C80.2266 20.5267 79.9732 19.84 79.4666 19.36C78.9732 18.88 78.2332 18.64 77.2466 18.64C76.5666 18.64 75.9199 18.7533 75.3066 18.98C74.6932 19.2067 74.1732 19.5067 73.7466 19.88L73.1066 18.82C73.6399 18.3667 74.2799 18.02 75.0266 17.78C75.7732 17.5267 76.5599 17.4 77.3866 17.4C78.7466 17.4 79.7932 17.74 80.5266 18.42C81.2732 19.0867 81.6466 20.1067 81.6466 21.48V28H80.2866ZM76.6666 28.1C75.8799 28.1 75.1932 27.9733 74.6066 27.72C74.0332 27.4533 73.5932 27.0933 73.2866 26.64C72.9799 26.1733 72.8266 25.64 72.8266 25.04C72.8266 24.4933 72.9532 24 73.2066 23.56C73.4732 23.1067 73.8999 22.7467 74.4866 22.48C75.0866 22.2 75.8866 22.06 76.8866 22.06H80.5066V23.12H76.9266C75.9132 23.12 75.2066 23.3 74.8066 23.66C74.4199 24.02 74.2266 24.4667 74.2266 25C74.2266 25.6 74.4599 26.08 74.9266 26.44C75.3932 26.8 76.0466 26.98 76.8866 26.98C77.6866 26.98 78.3732 26.8 78.9466 26.44C79.5332 26.0667 79.9599 25.5333 80.2266 24.84L80.5466 25.82C80.2799 26.5133 79.8132 27.0667 79.1466 27.48C78.4932 27.8933 77.6666 28.1 76.6666 28.1ZM84.3634 28V27.06L91.3634 18.2L91.6634 18.68H84.4834V17.5H92.7834V18.42L85.8034 27.3L85.4434 26.82H92.9234V28H84.3634ZM102.298 28V25.68L102.238 25.3V21.42C102.238 20.5267 101.985 19.84 101.478 19.36C100.985 18.88 100.245 18.64 99.2583 18.64C98.5783 18.64 97.9316 18.7533 97.3183 18.98C96.7049 19.2067 96.1849 19.5067 95.7583 19.88L95.1183 18.82C95.6516 18.3667 96.2916 18.02 97.0383 17.78C97.7849 17.5267 98.5716 17.4 99.3983 17.4C100.758 17.4 101.805 17.74 102.538 18.42C103.285 19.0867 103.658 20.1067 103.658 21.48V28H102.298ZM98.6783 28.1C97.8916 28.1 97.2049 27.9733 96.6183 27.72C96.0449 27.4533 95.6049 27.0933 95.2983 26.64C94.9916 26.1733 94.8383 25.64 94.8383 25.04C94.8383 24.4933 94.9649 24 95.2183 23.56C95.4849 23.1067 95.9116 22.7467 96.4983 22.48C97.0983 22.2 97.8983 22.06 98.8983 22.06H102.518V23.12H98.9383C97.9249 23.12 97.2183 23.3 96.8183 23.66C96.4316 24.02 96.2383 24.4667 96.2383 25C96.2383 25.6 96.4716 26.08 96.9383 26.44C97.4049 26.8 98.0583 26.98 98.8983 26.98C99.6983 26.98 100.385 26.8 100.958 26.44C101.545 26.0667 101.972 25.5333 102.238 24.84L102.558 25.82C102.292 26.5133 101.825 27.0667 101.158 27.48C100.505 27.8933 99.6783 28.1 98.6783 28.1Z" fill="#1F2041"/>
<g clip-path="url(#clip0_0_32)">
<path d="M22.5001 9.36572C22.3246 9.42068 21.6168 10.0134 20.9513 12.1506C20.4103 13.8876 20.0731 16.0837 19.9762 18.4439H25.024C24.927 16.0836 24.5898 13.8876 24.0489 12.1506C23.3834 10.0134 22.6756 9.42068 22.5001 9.36572Z" fill="#F3C9B9"/>
<path d="M25.369 8.29346C26.9042 10.4966 27.7099 14.4598 27.8638 18.4439H34.3333C33.7455 13.4894 30.1189 9.46753 25.369 8.29346Z" fill="#F3C9B9"/>
<path d="M20.9513 27.5748C21.6168 29.712 22.3246 30.3047 22.5001 30.3597C22.6755 30.3047 23.3834 29.712 24.0489 27.5748C24.5898 25.8378 24.927 23.6418 25.024 21.2815H19.9762C20.0731 23.6418 20.4103 25.8378 20.9513 27.5748Z" fill="#F3C9B9"/>
<path d="M10.6669 18.4439H17.1364C17.2903 14.4599 18.096 10.4966 19.6311 8.29346C14.8813 9.46753 11.2546 13.4894 10.6669 18.4439Z" fill="#F3C9B9"/>
<path d="M10.6669 21.2815C11.2547 26.2359 14.8813 30.2578 19.6311 31.4319C18.096 29.2288 17.2902 25.2656 17.1364 21.2815H10.6669Z" fill="#F3C9B9"/>
<path d="M25.369 31.4319C30.1189 30.2579 33.7455 26.2359 34.3332 21.2815H27.8637C27.7099 25.2655 26.9042 29.2288 25.369 31.4319Z" fill="#F3C9B9"/>
<path d="M35.2124 31.6746L32.7489 33.0824L34.9234 36.8879H28.1751V34.9962H25.3375V39.7254H34.9584L32.7489 43.5922L35.2124 45L38.2265 39.7254H42.3627V36.8879H38.1915L35.2124 31.6746Z" fill="#F3C9B9"/>
<path d="M5.47486 19.8627C5.47486 10.475 13.1124 2.83753 22.5 2.83753C31.8877 2.83753 39.5252 10.475 39.5252 19.8627H42.3627C42.3627 8.91041 33.4523 0 22.5 0C11.5477 0 2.63733 8.91041 2.63733 19.8627C2.63733 30.815 11.5477 39.7254 22.5 39.7254V36.8879C13.1124 36.8879 5.47486 29.2504 5.47486 19.8627Z" fill="#F3C9B9"/>
</g>
<defs>
<clipPath id="clip0_0_32">
<rect width="45" height="45" fill="white"/>
</clipPath>
</defs>
</svg>
