<svg width="45" height="45" viewBox="0 0 45 45" fill="none" xmlns="http://www.w3.org/2000/svg">
<g clip-path="url(#clip0_44_3)">
<path d="M22.5001 9.36572C22.3246 9.42068 21.6168 10.0134 20.9513 12.1506C20.4103 13.8876 20.0731 16.0837 19.9762 18.4439H25.024C24.927 16.0836 24.5898 13.8876 24.0489 12.1506C23.3834 10.0134 22.6756 9.42068 22.5001 9.36572Z" fill="#F3C9B9"/>
<path d="M25.369 8.29346C26.9042 10.4966 27.7099 14.4598 27.8638 18.4439H34.3333C33.7455 13.4894 30.1189 9.46753 25.369 8.29346Z" fill="#F3C9B9"/>
<path d="M20.9513 27.5748C21.6168 29.712 22.3246 30.3047 22.5001 30.3597C22.6755 30.3047 23.3834 29.712 24.0489 27.5748C24.5898 25.8378 24.927 23.6418 25.024 21.2815H19.9762C20.0731 23.6418 20.4103 25.8378 20.9513 27.5748Z" fill="#F3C9B9"/>
<path d="M10.6669 18.4439H17.1364C17.2903 14.4599 18.096 10.4966 19.6311 8.29346C14.8813 9.46753 11.2546 13.4894 10.6669 18.4439Z" fill="#F3C9B9"/>
<path d="M10.6669 21.2815C11.2547 26.2359 14.8813 30.2578 19.6311 31.4319C18.096 29.2288 17.2902 25.2656 17.1364 21.2815H10.6669Z" fill="#F3C9B9"/>
<path d="M25.369 31.4319C30.1189 30.2579 33.7455 26.2359 34.3332 21.2815H27.8637C27.7099 25.2655 26.9042 29.2288 25.369 31.4319Z" fill="#F3C9B9"/>
<path d="M35.2124 31.6746L32.7489 33.0824L34.9234 36.8879H28.1751V34.9962H25.3375V39.7254H34.9584L32.7489 43.5922L35.2124 45L38.2265 39.7254H42.3627V36.8879H38.1915L35.2124 31.6746Z" fill="#F3C9B9"/>
<path d="M5.47486 19.8627C5.47486 10.475 13.1124 2.83753 22.5 2.83753C31.8877 2.83753 39.5252 10.475 39.5252 19.8627H42.3627C42.3627 8.91041 33.4523 0 22.5 0C11.5477 0 2.63733 8.91041 2.63733 19.8627C2.63733 30.815 11.5477 39.7254 22.5 39.7254V36.8879C13.1124 36.8879 5.47486 29.2504 5.47486 19.8627Z" fill="#F3C9B9"/>
</g>
<defs>
<clipPath id="clip0_44_3">
<rect width="45" height="45" fill="white"/>
</clipPath>
</defs>
</svg>
