<?xml version="1.0"?>
<svg width="24" height="24" xmlns="http://www.w3.org/2000/svg" xmlns:svg="http://www.w3.org/2000/svg">

 <g class="layer">
  <title>Layer 1</title>
  <path d="m12,22c5.52,0 10,-4.48 10,-10c0,-5.52 -4.48,-10 -10,-10c-5.52,0 -10,4.48 -10,10c0,5.52 4.48,10 10,10z" fill="#b9cf30" id="svg_1" opacity="0.5"/>
  <path d="m15,12c0.55,0 1,-0.67 1,-1.5c0,-0.83 -0.45,-1.5 -1,-1.5c-0.55,0 -1,0.67 -1,1.5c0,0.83 0.45,1.5 1,1.5z" fill="#1C274C" id="svg_3"/>
  <path d="m9,12c0.55,0 1,-0.67 1,-1.5c0,-0.83 -0.45,-1.5 -1,-1.5c-0.55,0 -1,0.67 -1,1.5c0,0.83 0.45,1.5 1,1.5z" fill="#1C274C" id="svg_4"/>
  <rect fill="#1C274C" height="1.44" id="svg_5" width="6.81" x="8.65" y="15.24"/>
 </g>
</svg>