<?xml version="1.0" encoding="utf-8"?>
<svg width="800px" height="800px" viewBox="0 0 24 24" fill="none" xmlns="http://www.w3.org/2000/svg">
  <defs/>
  <path opacity="0.5" d="M12 22C17.5228 22 22 17.5228 22 12C22 6.47715 17.5228 2 12 2C6.47715 2 2 6.47715 2 12C2 17.5228 6.47715 22 12 22Z" fill="#1f88cf"/>
  <path d="M 8.454 17.231 C 8.7 17.569 9.172 17.639 9.504 17.39 C 10.234 16.842 11.116 16.527 12.063 16.527 C 13.011 16.527 13.892 16.842 14.622 17.39 C 14.955 17.639 15.426 17.569 15.673 17.231 C 15.92 16.895 15.851 16.42 15.517 16.171 C 14.543 15.441 13.351 15.009 12.063 15.009 C 10.775 15.009 9.584 15.441 8.611 16.171 C 8.276 16.42 8.206 16.895 8.454 17.231 Z" fill="#1C274C" style=""/>
  <path d="M15 12C15.5523 12 16 11.3284 16 10.5C16 9.67157 15.5523 9 15 9C14.4477 9 14 9.67157 14 10.5C14 11.3284 14.4477 12 15 12Z" fill="#1C274C"/>
  <path d="M9 12C9.55228 12 10 11.3284 10 10.5C10 9.67157 9.55228 9 9 9C8.44772 9 8 9.67157 8 10.5C8 11.3284 8.44772 12 9 12Z" fill="#1C274C"/>
</svg>